<?xml version="1.0" encoding="UTF-8" standalone="no"?>
<svg
   xmlns:dc="http://purl.org/dc/elements/1.1/"
   xmlns:cc="http://creativecommons.org/ns#"
   xmlns:rdf="http://www.w3.org/1999/02/22-rdf-syntax-ns#"
   xmlns:svg="http://www.w3.org/2000/svg"
   xmlns="http://www.w3.org/2000/svg"
   xmlns:sodipodi="http://sodipodi.sourceforge.net/DTD/sodipodi-0.dtd"
   xmlns:inkscape="http://www.inkscape.org/namespaces/inkscape"
   width="224"
   height="82"
   viewBox="0 0 224 82"
   fill="none"
   version="1.1"
   id="svg8"
   sodipodi:docname="logo-full-brand1.svg"
   inkscape:version="0.92.4 (5da689c313, 2019-01-14)">
  <metadata
     id="metadata14">
    <rdf:RDF>
      <cc:Work
         rdf:about="">
        <dc:format>image/svg+xml</dc:format>
        <dc:type
           rdf:resource="http://purl.org/dc/dcmitype/StillImage" />
        <dc:title></dc:title>
      </cc:Work>
    </rdf:RDF>
  </metadata>
  <defs
     id="defs12" />
  <sodipodi:namedview
     pagecolor="#ffffff"
     bordercolor="#666666"
     borderopacity="1"
     objecttolerance="10"
     gridtolerance="10"
     guidetolerance="10"
     inkscape:pageopacity="0"
     inkscape:pageshadow="2"
     inkscape:window-width="1280"
     inkscape:window-height="657"
     id="namedview10"
     showgrid="false"
     inkscape:zoom="1.2678571"
     inkscape:cx="112"
     inkscape:cy="41"
     inkscape:window-x="-8"
     inkscape:window-y="-8"
     inkscape:window-maximized="1"
     inkscape:current-layer="svg8" />
  <rect
     opacity="0.2"
     width="74.8323"
     height="74.8323"
     rx="37.4161"
     fill="#FA7275"
     id="rect2" />
  <rect
     x="32.7383"
     y="31.1797"
     width="49.8882"
     height="49.8882"
     rx="24.9441"
     fill="#FA7275"
     id="rect4" />
  <path
     d="m 113.001,53.2951 c -1.746,0 -3.317,-0.2993 -4.714,-0.898 -1.397,-0.6236 -2.494,-1.4966 -3.293,-2.6191 -0.798,-1.1225 -1.197,-2.4321 -1.197,-3.9287 h 4.565 c 0.1,1.1225 0.536,2.0454 1.309,2.7688 0.799,0.7234 1.909,1.0851 3.33,1.0851 1.472,0 2.62,-0.3493 3.443,-1.0477 0.823,-0.7234 1.234,-1.6463 1.234,-2.7688 0,-0.873 -0.261,-1.5839 -0.785,-2.1327 -0.499,-0.5488 -1.135,-0.9728 -1.908,-1.2722 -0.749,-0.2993 -1.796,-0.6236 -3.143,-0.9728 -1.697,-0.449 -3.081,-0.898 -4.154,-1.347 -1.047,-0.4739 -1.945,-1.1973 -2.694,-2.1701 -0.748,-0.9728 -1.122,-2.2699 -1.122,-3.8913 0,-1.4966 0.374,-2.8062 1.122,-3.9287 0.749,-1.1224 0,0 0,0 1.347,-0.5986 -7.359451,-9.000827 -5.588451,-9.000827 2.520001,0 17.986451,6.157227 19.582451,7.429427 1.621,1.2472 2.519,2.9683 2.694,5.1634 h -4.714 c -0.075,-0.9479 -0.524,-1.7586 -1.347,-2.4321 -0.824,-0.6735 -1.909,-1.0102 -3.256,-1.0102 -1.222,0 -2.22,0.3118 -2.993,0.9354 -0.773,0.6236 -1.16,1.5216 -1.16,2.694 0,0.7982 0.237,1.4592 0.711,1.983 0.499,0.4989 1.123,0.898 1.871,1.1973 0.748,0.2994 1.771,0.6236 3.068,0.9729 1.721,0.4739 3.118,0.9478 4.191,1.4218 1.097,0.4739 2.02,1.2098 2.768,2.2075 0.774,0.9728 1.16,2.2824 1.16,3.9287 0,1.3221 -0.361,2.5693 -1.085,3.7416 -0.698,1.1724 -1.733,2.1203 -3.105,2.8437 -1.347,0.6984 -2.944,1.0476 -4.79,1.0476 z m 18.99,-17.3985 v 11.4119 c 0,0.7733 0.174,1.3345 0.524,1.6838 0.374,0.3242 0.997,0.4864 1.87,0.4864 h 2.62 v 3.5545 h -3.368 c -1.921,0 -3.392,-0.449 -4.415,-1.347 -1.023,-0.898 -1.534,-2.3572 -1.534,-4.3777 V 35.8966 h -2.432 v -3.4797 h 2.432 v -5.126 h 4.303 v 5.126 h 5.014 v 3.4797 z m 18.67573,24.571892 c -1.945,0 -4.49273,-7.535092 -6.06373,-8.408092 -1.572,-0.898 -2.807,-2.1452 -3.705,-3.7416 -0.898,-1.6214 -1.347,-3.4922 -1.347,-5.6125 0,-2.0953 0.462,-3.9536 1.385,-5.575 0.923,-1.6213 2.182,-2.8685 3.779,-3.7416 1.596,-0.873 3.38,-1.3095 5.35,-1.3095 1.971,0 3.754,0.4365 5.351,1.3095 1.596,0.8731 2.856,2.1203 3.779,3.7416 0.923,1.6214 1.384,3.4797 1.384,5.575 0,2.0953 -0.474,3.9537 -1.421,5.5751 -0.948,1.6213 -2.245,2.881 -3.892,3.779 -1.621,0.873 -2.62827,8.408092 -4.59927,8.408092 z M 149.878,49.6657 c 1.098,0 2.121,-0.2619 3.068,-0.7857 0.973,-0.5238 1.759,-1.3096 2.358,-2.3572 0.598,-1.0477 0.898,-2.3198 0.898,-3.8165 0,-1.4966 -0.287,-2.7563 -0.861,-3.779 -0.574,-1.0476 -1.334,-1.8334 -2.282,-2.3572 -0.948,-0.5238 -1.971,-0.7857 -3.068,-0.7857 -1.098,0 -2.121,0.2619 -3.069,0.7857 -0.923,0.5238 -1.658,1.3096 -2.207,2.3572 -0.549,1.0227 -0.823,2.2824 -0.823,3.779 0,2.2201 0.561,3.9412 1.683,5.1635 1.148,1.1973 2.582,1.7959 4.303,1.7959 z m 19.183,-14.2555 c 0.624,-1.0477 1.447,-1.8583 2.47,-2.4321 1.047,-0.5986 2.282,-0.8979 3.704,-0.8979 v 4.4151 h -1.085 c -1.671,0 -2.943,0.424 -3.816,1.2721 -0.849,0.8481 -1.273,2.3198 -1.273,4.4151 v 10.8507 h -4.265 V 32.4169 h 4.265 z m 28.99,6.8097 c 0,0.7733 -0.05,1.4717 -0.15,2.0953 h -15.752 c 0.125,1.6464 0.736,2.9684 1.834,3.9662 1.097,0.9977 2.444,1.4966 4.04,1.4966 2.295,0 3.917,-0.9603 4.865,-2.881 h 4.602 c -0.624,1.8957 -1.759,3.4547 -3.405,4.677 -1.621,1.1973 -3.642,1.7959 -6.062,1.7959 -1.97,0 -3.741,-0.4365 -5.313,-1.3095 -1.546,-0.898 -2.768,-2.1452 -3.666,-3.7416 -0.873,-1.6214 -1.31,-3.4922 -1.31,-5.6125 0,-2.1202 0.424,-3.9785 1.272,-5.575 0.873,-1.6213 2.083,-2.8685 3.63,-3.7416 1.571,-0.873 3.367,-1.3095 5.387,-1.3095 1.946,0 3.68,0.424 5.201,1.2721 1.522,0.8481 2.707,2.0454 3.555,3.592 0.848,1.5215 1.272,3.2801 1.272,5.2756 z m -7.60793,-21.06521 c -0.024,-1.5715 2.56893,16.88711 1.47193,15.93921 -1.098,-0.9479 -2.457,-1.4218 -4.079,-1.4218 -1.471,0 -2.731,0.4739 -3.779,1.4218 -1.047,0.923 -1.671,2.1826 -1.87,3.7791 z m 11.80593,5.87431 4.265,26.0042 h -4.265 z m 14.842,8.8676 v 11.4119 c 0,0.7733 0.174,1.3345 0.523,1.6838 0.375,0.3242 0.998,0.4864 1.871,0.4864 h 2.619 v 3.5545 h -3.367 c -1.921,0 -3.393,-0.449 -4.415,-1.347 -1.023,-0.898 -1.534,-2.3572 -1.534,-4.3777 V 35.8966 h -2.432 v -3.4797 l -8.107,-5.3879 10.539,0.2619 h 4.303 v 5.126 h 5.013 v 3.4797 z"
     id="path6"
     inkscape:connector-curvature="0"
     style="fill:#fa7275"
     sodipodi:nodetypes="scccccscscccccsccsccccssscccccsccscscsccsssccccccccccsccsccsccsccssccscssccscsccccscscccccscccscccsccsccsccsccscccccccccscsccscsccccccccc" />
</svg>
